<?xml version="1.0" standalone="no"?>
<!DOCTYPE svg PUBLIC "-//W3C//DTD SVG 20010904//EN"
 "http://www.w3.org/TR/2001/REC-SVG-20010904/DTD/svg10.dtd">
<svg version="1.0" xmlns="http://www.w3.org/2000/svg"
 width="992.000000pt" height="248.000000pt" viewBox="0 0 992.000000 248.000000"
 preserveAspectRatio="xMidYMid meet">

<g transform="translate(0.000000,248.000000) scale(0.100000,-0.100000)"
fill="#000000" stroke="none">
<path d="M1110 2275 c-394 -85 -678 -353 -782 -740 -30 -110 -32 -365 -4 -470
81 -305 262 -532 531 -665 136 -68 229 -91 395 -97 220 -9 377 29 553 132 l78
46 161 -41 c88 -23 161 -40 163 -38 2 2 -17 76 -42 165 l-44 162 40 68 c191
322 169 769 -53 1077 -152 210 -363 344 -631 401 -87 18 -278 18 -365 0z
m-278 -626 c25 -6 43 -19 52 -38 8 -15 38 -117 66 -227 28 -109 56 -216 61
-236 7 -26 15 -38 28 -38 15 0 24 30 60 188 67 292 85 332 164 353 57 15 116
-9 144 -59 18 -31 76 -245 113 -417 32 -149 26 -158 100 135 36 146 74 279 83
297 33 63 139 66 187 5 31 -38 25 -71 -54 -323 -37 -118 -83 -264 -103 -326
-44 -143 -78 -198 -131 -214 -82 -24 -153 13 -190 98 -11 27 -41 137 -67 246
-26 109 -49 197 -50 195 -2 -2 -26 -94 -53 -205 -73 -292 -101 -339 -208 -337
-98 0 -126 39 -197 274 -25 80 -70 228 -101 328 -31 101 -56 196 -56 211 0 35
25 70 64 87 38 16 42 16 88 3z"/>
<path d="M4310 1230 l0 -581 123 3 122 3 5 277 5 276 25 28 c73 78 199 70 233
-15 14 -35 17 -83 17 -307 l0 -265 123 3 122 3 3 272 c3 305 -7 383 -56 463
-20 32 -43 53 -82 73 -106 54 -223 46 -330 -24 -33 -21 -63 -39 -65 -39 -3 0
-5 92 -5 205 l0 205 -120 0 -120 0 0 -580z"/>
<path d="M2650 1731 c0 -10 4 -31 9 -47 12 -37 214 -707 286 -946 l26 -88 104
0 103 0 36 93 c19 50 69 180 110 287 41 107 78 194 83 193 4 0 38 -75 75 -165
38 -89 91 -218 120 -285 l51 -123 98 0 c54 0 100 4 103 8 3 5 23 69 45 143 21
74 76 256 121 404 117 384 160 529 160 538 0 4 -58 7 -130 7 l-129 0 -21 -72
c-12 -40 -32 -109 -45 -153 -18 -62 -117 -422 -129 -469 -1 -5 -14 27 -28 70
-14 44 -59 168 -100 277 l-73 197 -108 -2 -109 -3 -79 -205 c-43 -113 -86
-235 -96 -272 -17 -65 -33 -89 -33 -50 0 16 -151 558 -181 650 l-11 32 -129 0
c-119 0 -129 -1 -129 -19z"/>
<path d="M5545 1490 c-50 -10 -137 -44 -173 -67 -51 -32 -102 -76 -102 -88 0
-10 43 -54 112 -114 l27 -24 40 32 c125 99 281 73 293 -49 l3 -35 -130 -5
c-157 -7 -227 -26 -289 -81 -76 -67 -97 -178 -52 -275 70 -151 284 -193 436
-84 37 27 40 26 40 -15 l0 -35 115 0 115 0 0 323 c0 318 0 323 -24 373 -43 92
-140 143 -286 149 -47 2 -103 0 -125 -5z m203 -549 c4 -51 -13 -75 -73 -102
-119 -55 -235 22 -162 107 27 31 75 43 167 41 l65 -2 3 -44z"/>
<path d="M6365 1487 c-73 -19 -126 -50 -169 -97 -47 -52 -56 -77 -56 -150 0
-74 12 -105 58 -153 49 -51 115 -84 235 -117 108 -31 137 -50 137 -91 0 -80
-157 -80 -273 0 l-43 29 -29 -27 c-17 -14 -50 -43 -75 -64 l-44 -37 30 -31
c36 -37 130 -83 205 -99 32 -7 96 -11 150 -8 147 6 243 59 293 160 30 59 35
138 12 191 -15 37 -70 89 -124 116 -20 10 -89 35 -153 55 -64 20 -122 43 -129
51 -20 24 -15 67 10 87 46 37 155 15 239 -49 l34 -27 63 70 c35 38 62 74 61
79 -6 19 -96 73 -159 94 -79 27 -205 35 -273 18z"/>
<path d="M7187 1485 c-77 -20 -157 -59 -209 -102 -24 -19 -44 -39 -46 -43 -3
-8 44 -58 110 -118 l26 -23 50 36 c125 90 275 61 284 -55 l3 -35 -130 -5
c-168 -7 -233 -27 -296 -90 -76 -76 -89 -191 -34 -286 69 -117 235 -159 371
-95 34 16 65 34 68 40 12 19 26 2 26 -30 l0 -30 118 3 117 3 0 315 c0 310 0
316 -24 368 -29 65 -73 104 -148 132 -75 28 -207 35 -286 15z m221 -547 c2
-38 -1 -50 -20 -68 -34 -33 -81 -50 -135 -50 -51 1 -73 12 -91 47 -17 32 -15
49 11 79 27 31 75 43 167 41 l65 -2 3 -47z"/>
<path d="M8274 1490 c-45 -9 -139 -53 -149 -70 -15 -24 -35 -9 -35 25 l0 35
-120 0 -120 0 0 -585 0 -585 125 0 125 0 0 205 c0 124 4 205 10 205 5 0 26
-11 46 -25 78 -53 194 -69 291 -40 162 48 263 205 263 408 0 143 -35 240 -116
327 -76 81 -211 123 -320 100z m81 -219 c50 -23 68 -43 96 -106 29 -66 23
-164 -14 -228 -54 -91 -184 -116 -264 -51 -56 46 -76 94 -76 180 0 102 29 158
102 196 62 33 100 35 156 9z"/>
<path d="M9175 1490 c-158 -34 -264 -119 -323 -262 -36 -84 -37 -233 -4 -318
47 -120 144 -209 272 -250 60 -19 85 -22 174 -18 93 4 111 8 179 41 94 44 153
102 198 193 33 67 34 72 34 194 0 116 -2 129 -27 180 -53 108 -137 183 -246
221 -64 23 -197 33 -257 19z m193 -236 c63 -37 87 -89 87 -191 0 -74 -3 -85
-30 -125 -53 -76 -143 -106 -223 -73 -81 35 -121 102 -122 204 0 174 145 267
288 185z"/>
</g>
</svg>
